<svg width="1878" height="1678" viewBox="0 0 1878 1678" fill="none" xmlns="http://www.w3.org/2000/svg">
<mask id="path-1-inside-1_56_56" fill="white">
<path d="M587.088 1219.99C699.399 1294.47 767.684 1425.22 767.769 1565.96C767.692 1567.98 767.601 1570 767.496 1572.02H0.268555C0.165086 1570 0.0754737 1567.98 0 1565.96C0.192983 1425.22 68.5771 1294.52 180.943 1220.13C236.326 1270.93 308.707 1299.17 383.857 1299.31C459.116 1299.19 531.605 1270.88 587.028 1219.97L587.088 1219.99ZM383.857 772C508.818 772 610.121 873.302 610.121 998.265C610.123 1123.23 508.82 1224.53 383.857 1224.53C258.894 1224.53 157.591 1123.23 157.593 998.265C157.593 873.304 258.894 772.001 383.857 772Z"/>
</mask>
<path d="M587.088 1219.99C699.399 1294.47 767.684 1425.22 767.769 1565.96C767.692 1567.98 767.601 1570 767.496 1572.02H0.268555C0.165086 1570 0.0754737 1567.98 0 1565.96C0.192983 1425.22 68.5771 1294.52 180.943 1220.13C236.326 1270.93 308.707 1299.17 383.857 1299.31C459.116 1299.19 531.605 1270.88 587.028 1219.97L587.088 1219.99ZM383.857 772C508.818 772 610.121 873.302 610.121 998.265C610.123 1123.23 508.82 1224.53 383.857 1224.53C258.894 1224.53 157.591 1123.23 157.593 998.265C157.593 873.304 258.894 772.001 383.857 772Z" fill="#EBF8FC"/>
<path d="M587.088 1219.99L620.25 1169.98L611.551 1164.21L601.415 1161.72L587.088 1219.99ZM767.769 1565.96L827.725 1568.24L827.769 1567.08L827.769 1565.92L767.769 1565.96ZM767.496 1572.02V1632.02H824.453L827.415 1575.14L767.496 1572.02ZM0.268555 1572.02L-59.6528 1575.09L-56.7353 1632.02H0.268555V1572.02ZM0 1565.96L-59.9999 1565.88L-60.0015 1567.04L-59.9582 1568.2L0 1565.96ZM180.943 1220.13L221.499 1175.91L186.932 1144.21L147.822 1170.1L180.943 1220.13ZM383.857 1299.31L383.748 1359.31L383.849 1359.31L383.95 1359.31L383.857 1299.31ZM587.028 1219.97L601.356 1161.71L570.124 1154.03L546.438 1175.78L587.028 1219.97ZM383.857 772L383.858 712H383.857L383.857 772ZM610.121 998.265L550.121 998.265V998.266L610.121 998.265ZM383.857 1224.53V1284.53H383.858L383.857 1224.53ZM157.593 998.265L217.593 998.265V998.265H157.593ZM587.088 1219.99L553.926 1269.99C648.617 1332.79 707.696 1444.29 707.769 1565.99L767.769 1565.96L827.769 1565.92C827.673 1406.15 750.18 1256.15 620.25 1169.98L587.088 1219.99ZM767.769 1565.96L707.812 1563.68C707.745 1565.43 707.667 1567.17 707.577 1568.9L767.496 1572.02L827.415 1575.14C827.535 1572.83 827.638 1570.53 827.725 1568.24L767.769 1565.96ZM767.496 1572.02V1512.02H0.268555V1572.02V1632.02H767.496V1572.02ZM0.268555 1572.02L60.1899 1568.95C60.1005 1567.2 60.0232 1565.46 59.9582 1563.72L0 1565.96L-59.9582 1568.2C-59.8723 1570.5 -59.7704 1572.8 -59.6528 1575.09L0.268555 1572.02ZM0 1565.96L59.9999 1566.04C60.1668 1444.33 119.33 1332.88 214.065 1270.16L180.943 1220.13L147.822 1170.1C17.8241 1256.17 -59.7809 1406.1 -59.9999 1565.88L0 1565.96ZM180.943 1220.13L140.387 1264.35C206.81 1325.27 293.618 1359.14 383.748 1359.31L383.857 1299.31L383.966 1239.31C323.795 1239.2 265.842 1216.58 221.499 1175.91L180.943 1220.13ZM383.857 1299.31L383.95 1359.31C474.211 1359.17 561.147 1325.22 627.618 1264.16L587.028 1219.97L546.438 1175.78C502.062 1216.55 444.022 1239.21 383.765 1239.31L383.857 1299.31ZM587.028 1219.97L572.701 1278.24L572.761 1278.25L587.088 1219.99L601.415 1161.72L601.356 1161.71L587.028 1219.97ZM383.857 772L383.857 832C475.681 832 550.121 906.439 550.121 998.265L610.121 998.265L670.121 998.264C670.12 840.164 541.955 712 383.858 712L383.857 772ZM610.121 998.265L550.121 998.266C550.123 1090.09 475.683 1164.53 383.857 1164.53L383.857 1224.53L383.858 1284.53C541.958 1284.53 670.124 1156.36 670.121 998.264L610.121 998.265ZM383.857 1224.53V1164.53C292.032 1164.53 217.592 1090.09 217.593 998.265L157.593 998.265L97.5928 998.264C97.5909 1156.36 225.756 1284.53 383.857 1284.53V1224.53ZM157.593 998.265H217.593C217.593 906.441 292.032 832 383.858 832L383.857 772L383.857 712C225.757 712.001 97.5928 840.167 97.5928 998.265H157.593Z" fill="#1C1A19" mask="url(#path-1-inside-1_56_56)"/>
<mask id="path-3-inside-2_56_56" fill="white">
<path d="M1697.09 1219.99C1809.4 1294.47 1877.68 1425.22 1877.77 1565.96C1877.69 1567.98 1877.6 1570 1877.5 1572.02H1110.27C1110.17 1570 1110.08 1567.98 1110 1565.96C1110.19 1425.22 1178.58 1294.52 1290.94 1220.13C1346.33 1270.93 1418.71 1299.17 1493.86 1299.31C1569.12 1299.19 1641.6 1270.88 1697.03 1219.97L1697.09 1219.99ZM1493.86 772C1618.82 772 1720.12 873.302 1720.12 998.265C1720.12 1123.23 1618.82 1224.53 1493.86 1224.53C1368.89 1224.53 1267.59 1123.23 1267.59 998.265C1267.59 873.304 1368.89 772.001 1493.86 772Z"/>
</mask>
<path d="M1697.09 1219.99C1809.4 1294.47 1877.68 1425.22 1877.77 1565.96C1877.69 1567.98 1877.6 1570 1877.5 1572.02H1110.27C1110.17 1570 1110.08 1567.98 1110 1565.96C1110.19 1425.22 1178.58 1294.52 1290.94 1220.13C1346.33 1270.93 1418.71 1299.17 1493.86 1299.31C1569.12 1299.19 1641.6 1270.88 1697.03 1219.97L1697.09 1219.99ZM1493.86 772C1618.82 772 1720.12 873.302 1720.12 998.265C1720.12 1123.23 1618.82 1224.53 1493.86 1224.53C1368.89 1224.53 1267.59 1123.23 1267.59 998.265C1267.59 873.304 1368.89 772.001 1493.86 772Z" fill="#EBF8FC"/>
<path d="M1697.09 1219.99L1730.25 1169.98L1721.55 1164.21L1711.42 1161.72L1697.09 1219.99ZM1877.77 1565.96L1937.73 1568.24L1937.77 1567.08L1937.77 1565.92L1877.77 1565.96ZM1877.5 1572.02V1632.02H1934.45L1937.41 1575.14L1877.5 1572.02ZM1110.27 1572.02L1050.35 1575.09L1053.26 1632.02H1110.27V1572.02ZM1110 1565.96L1050 1565.88L1050 1567.04L1050.04 1568.2L1110 1565.96ZM1290.94 1220.13L1331.5 1175.91L1296.93 1144.21L1257.82 1170.1L1290.94 1220.13ZM1493.86 1299.31L1493.75 1359.31L1493.85 1359.31L1493.95 1359.31L1493.86 1299.31ZM1697.03 1219.97L1711.36 1161.71L1680.12 1154.03L1656.44 1175.78L1697.03 1219.97ZM1493.86 772L1493.86 712H1493.86L1493.86 772ZM1720.12 998.265L1660.12 998.265V998.266L1720.12 998.265ZM1493.86 1224.53V1284.53H1493.86L1493.86 1224.53ZM1267.59 998.265L1327.59 998.265V998.265H1267.59ZM1697.09 1219.99L1663.93 1269.99C1758.62 1332.79 1817.7 1444.29 1817.77 1565.99L1877.77 1565.96L1937.77 1565.92C1937.67 1406.15 1860.18 1256.15 1730.25 1169.98L1697.09 1219.99ZM1877.77 1565.96L1817.81 1563.68C1817.75 1565.43 1817.67 1567.17 1817.58 1568.9L1877.5 1572.02L1937.41 1575.14C1937.54 1572.83 1937.64 1570.53 1937.73 1568.24L1877.77 1565.96ZM1877.5 1572.02V1512.02H1110.27V1572.02V1632.02H1877.5V1572.02ZM1110.27 1572.02L1170.19 1568.95C1170.1 1567.2 1170.02 1565.46 1169.96 1563.72L1110 1565.96L1050.04 1568.2C1050.13 1570.5 1050.23 1572.8 1050.35 1575.09L1110.27 1572.02ZM1110 1565.96L1170 1566.04C1170.17 1444.33 1229.33 1332.88 1324.06 1270.16L1290.94 1220.13L1257.82 1170.1C1127.82 1256.17 1050.22 1406.1 1050 1565.88L1110 1565.96ZM1290.94 1220.13L1250.39 1264.35C1316.81 1325.27 1403.62 1359.14 1493.75 1359.31L1493.86 1299.31L1493.97 1239.31C1433.8 1239.2 1375.84 1216.58 1331.5 1175.91L1290.94 1220.13ZM1493.86 1299.31L1493.95 1359.31C1584.21 1359.17 1671.15 1325.22 1737.62 1264.16L1697.03 1219.97L1656.44 1175.78C1612.06 1216.55 1554.02 1239.21 1493.77 1239.31L1493.86 1299.31ZM1697.03 1219.97L1682.7 1278.24L1682.76 1278.25L1697.09 1219.99L1711.42 1161.72L1711.36 1161.71L1697.03 1219.97ZM1493.86 772L1493.86 832C1585.68 832 1660.12 906.439 1660.12 998.265L1720.12 998.265L1780.12 998.264C1780.12 840.164 1651.96 712 1493.86 712L1493.86 772ZM1720.12 998.265L1660.12 998.266C1660.12 1090.09 1585.68 1164.53 1493.86 1164.53L1493.86 1224.53L1493.86 1284.53C1651.96 1284.53 1780.12 1156.36 1780.12 998.264L1720.12 998.265ZM1493.86 1224.53V1164.53C1402.03 1164.53 1327.59 1090.09 1327.59 998.265L1267.59 998.265L1207.59 998.264C1207.59 1156.36 1335.76 1284.53 1493.86 1284.53V1224.53ZM1267.59 998.265H1327.59C1327.59 906.441 1402.03 832 1493.86 832L1493.86 772L1493.86 712C1335.76 712.001 1207.59 840.167 1207.59 998.265H1267.59Z" fill="#1C1A19" mask="url(#path-3-inside-2_56_56)"/>
<path d="M865.449 530.424H1007.31C1007.34 529.76 1007.38 529.164 1007.41 528.681C1010.29 479.544 1030.99 454.712 1049.24 432.793C1057.06 423.396 1064.45 414.527 1069.62 404.481C1069.92 403.832 1070.27 403.206 1070.67 402.617C1085.16 378.434 1092.83 350.695 1092.83 322.383C1092.83 282.727 1077.94 244.89 1050.92 215.853C1021.41 184.167 979.663 166 936.391 166C897.89 166 860.898 180.144 832.201 205.83C828.283 209.241 824.728 212.736 821.211 216.593C794.613 245.554 780 283.112 780 322.383C780 335.751 781.676 348.952 785.004 361.647C788.695 376.071 794.416 389.808 802.017 402.519C802.402 403.024 802.742 403.575 803.028 404.164C808.199 414.369 815.671 423.351 823.581 432.846C841.749 454.674 862.339 479.401 865.321 528.394C865.358 529.058 865.404 529.737 865.449 530.424Z" fill="#50C6EA"/>
<path d="M1008.06 622.594H851.665V545.9H1008.06V622.594Z" fill="white"/>
<path d="M862.298 529.965H1004.16C1004.19 529.301 1004.23 528.704 1004.26 528.221C1007.14 479.085 1027.84 454.253 1046.09 432.334C1053.91 422.937 1061.3 414.068 1066.47 404.022C1066.77 403.373 1067.12 402.746 1067.52 402.157C1082.01 377.974 1089.68 350.236 1089.68 321.924C1089.68 282.268 1074.78 244.43 1047.77 215.394C1018.26 183.708 976.512 165.54 933.232 165.54C894.738 165.54 857.746 179.685 829.05 205.37C825.132 208.782 821.577 212.277 818.06 216.134C791.461 245.095 776.849 282.653 776.849 321.924C776.849 335.291 778.524 348.492 781.853 361.188C785.544 375.612 791.265 389.349 798.866 402.059C799.251 402.565 799.59 403.116 799.877 403.705C805.047 413.909 812.52 422.891 820.43 432.387C838.598 454.215 859.188 478.942 862.169 527.935C862.207 528.599 862.253 529.278 862.298 529.965ZM1015.1 552.541H851.316C845.081 552.541 840.032 547.499 840.032 541.249L839.979 537.649C839.949 536.554 839.926 535.475 839.866 534.441C839.843 534.184 839.843 533.943 839.843 533.686C839.843 532.237 839.745 530.848 839.632 529.437C837.096 487.712 819.796 466.925 803.077 446.833C794.911 437.028 786.48 426.899 780.208 414.815C780.102 414.664 780.004 414.498 779.906 414.34C770.984 399.569 764.282 383.597 759.994 366.849C756.198 352.342 754.273 337.201 754.273 321.924C754.273 276.977 771.007 233.992 801.394 200.902C805.478 196.411 809.644 192.335 814.097 188.456C846.832 159.147 889.183 142.957 933.232 142.957C982.754 142.957 1030.52 163.744 1064.3 200.004C1095.22 233.244 1112.25 276.539 1112.25 321.924C1112.25 354.289 1103.5 386.005 1086.94 413.691C1086.75 414.091 1086.54 414.468 1086.29 414.845C1080.01 426.899 1071.58 436.991 1063.43 446.78C1046.62 466.963 1029.25 487.825 1026.79 529.701C1026.55 533.022 1026.39 541.445 1026.39 541.483C1026.26 547.627 1021.25 552.541 1015.1 552.541Z" fill="#1C1A19" stroke="#1C1A19" stroke-width="20"/>
<path d="M1015.11 552.543H1003.82V606.133C1003.82 612.36 998.742 617.417 992.53 617.417H873.893C867.666 617.417 862.609 612.36 862.609 606.133V552.543H851.317C845.075 552.543 840.033 547.494 840.033 541.252V606.133C840.033 624.806 855.22 640 873.893 640H992.53C1011.2 640 1026.39 624.806 1026.39 606.133V541.486C1026.26 547.622 1021.25 552.543 1015.11 552.543Z" fill="#1C1A19" stroke="#1C1A19" stroke-width="20"/>
<path d="M938.535 92.5C946.079 92.5 952.6 87.0297 952.6 79.958V16.042C952.6 8.97031 946.079 3.5 938.535 3.5H933.563C926.006 3.50019 919.5 8.97131 919.5 16.042V79.958C919.5 87.0287 926.006 92.4998 933.563 92.5H938.535Z" fill="#1C1A19" stroke="#1C1A19" stroke-width="3"/>
<path d="M1060.97 127.209C1067.39 130.331 1075.45 128.184 1079.07 122.266L1079.24 121.98L1079.24 121.979L1111.93 65.1084L1112.09 64.8164C1115.42 58.654 1112.75 51.1489 1106.27 47.9971L1106.27 47.9961L1102.05 45.9395C1095.53 42.7554 1087.31 45.0212 1083.78 51.1553V51.1562L1051.1 108.028V108.027C1047.52 114.244 1050.17 121.938 1056.75 125.15L1060.97 127.208L1060.97 127.209Z" fill="#1C1A19" stroke="#1C1A19" stroke-width="3"/>
<path d="M1146.63 220.527C1150.31 227.15 1158.58 229.503 1165.02 225.633L1224.82 189.698L1224.82 189.697C1231.22 185.85 1233.38 177.325 1229.72 170.731L1229.72 170.732L1227.36 166.479C1223.69 159.838 1215.42 157.501 1208.99 161.37L1149.18 197.305L1149.18 197.306C1142.79 201.153 1140.62 209.675 1144.27 216.269V216.27L1146.63 220.526L1146.63 220.527Z" fill="#1C1A19" stroke="#1C1A19" stroke-width="3"/>
<path d="M1254.96 338.417H1254.96C1262.41 338.403 1268.51 332.296 1268.5 324.835V320.044C1268.49 312.585 1262.38 306.488 1254.92 306.501V306.5L1185.04 306.583H1185.04C1177.58 306.597 1171.49 312.706 1171.5 320.168V324.944C1171.51 332.414 1177.62 338.511 1185.08 338.499L1185.08 338.5L1254.96 338.417Z" fill="#1C1A19" stroke="#1C1A19" stroke-width="3"/>
<g clip-path="url(#clip0_56_56)">
<mask id="path-13-inside-3_56_56" fill="white">
<path d="M1139.1 1307.98C1251.41 1382.46 1319.69 1513.21 1319.78 1653.95C1319.7 1655.97 1319.61 1657.99 1319.5 1660.01H552.277C552.174 1657.99 552.084 1655.97 552.009 1653.95C552.202 1513.21 620.586 1382.51 732.952 1308.12C788.335 1358.92 860.716 1387.16 935.866 1387.29C1011.13 1387.18 1083.61 1358.87 1139.04 1307.96L1139.1 1307.98ZM935.866 859.989C1060.83 859.989 1162.13 961.291 1162.13 1086.25C1162.13 1211.22 1060.83 1312.52 935.866 1312.52C810.903 1312.52 709.6 1211.22 709.602 1086.25C709.602 961.293 810.903 859.99 935.866 859.989Z"/>
</mask>
<path d="M1139.1 1307.98C1251.41 1382.46 1319.69 1513.21 1319.78 1653.95C1319.7 1655.97 1319.61 1657.99 1319.5 1660.01H552.277C552.174 1657.99 552.084 1655.97 552.009 1653.95C552.202 1513.21 620.586 1382.51 732.952 1308.12C788.335 1358.92 860.716 1387.16 935.866 1387.29C1011.13 1387.18 1083.61 1358.87 1139.04 1307.96L1139.1 1307.98ZM935.866 859.989C1060.83 859.989 1162.13 961.291 1162.13 1086.25C1162.13 1211.22 1060.83 1312.52 935.866 1312.52C810.903 1312.52 709.6 1211.22 709.602 1086.25C709.602 961.293 810.903 859.99 935.866 859.989Z" fill="#EBF8FC"/>
<path d="M1139.1 1307.98L1172.26 1257.97L1163.56 1252.2L1153.42 1249.71L1139.1 1307.98ZM1319.78 1653.95L1379.73 1656.22L1379.78 1655.07L1379.78 1653.91L1319.78 1653.95ZM1319.5 1660.01V1720.01H1376.46L1379.42 1663.13L1319.5 1660.01ZM552.277 1660.01L492.356 1663.08L495.273 1720.01H552.277V1660.01ZM552.009 1653.95L492.009 1653.87L492.007 1655.03L492.051 1656.19L552.009 1653.95ZM732.952 1308.12L773.508 1263.9L738.941 1232.2L699.831 1258.09L732.952 1308.12ZM935.866 1387.29L935.757 1447.29L935.858 1447.29L935.959 1447.29L935.866 1387.29ZM1139.04 1307.96L1153.36 1249.7L1122.13 1242.02L1098.45 1263.77L1139.04 1307.96ZM935.866 859.989L935.866 799.989H935.866L935.866 859.989ZM1162.13 1086.25L1102.13 1086.25V1086.26L1162.13 1086.25ZM935.866 1312.52V1372.52H935.867L935.866 1312.52ZM709.602 1086.25L769.602 1086.25V1086.25H709.602ZM1139.1 1307.98L1105.93 1357.98C1200.63 1420.78 1259.7 1532.28 1259.78 1653.98L1319.78 1653.95L1379.78 1653.91C1379.68 1494.14 1302.19 1344.14 1172.26 1257.97L1139.1 1307.98ZM1319.78 1653.95L1259.82 1651.67C1259.75 1653.42 1259.68 1655.16 1259.59 1656.89L1319.5 1660.01L1379.42 1663.13C1379.54 1660.82 1379.65 1658.52 1379.73 1656.22L1319.78 1653.95ZM1319.5 1660.01V1600.01H552.277V1660.01V1720.01H1319.5V1660.01ZM552.277 1660.01L612.199 1656.94C612.109 1655.19 612.032 1653.45 611.967 1651.71L552.009 1653.95L492.051 1656.19C492.137 1658.49 492.238 1660.79 492.356 1663.08L552.277 1660.01ZM552.009 1653.95L612.009 1654.03C612.176 1532.32 671.339 1420.87 766.074 1358.15L732.952 1308.12L699.831 1258.09C569.833 1344.15 492.228 1494.09 492.009 1653.87L552.009 1653.95ZM732.952 1308.12L692.396 1352.34C758.819 1413.26 845.627 1447.13 935.757 1447.29L935.866 1387.29L935.975 1327.3C875.804 1327.19 817.851 1304.57 773.508 1263.9L732.952 1308.12ZM935.866 1387.29L935.959 1447.29C1026.22 1447.16 1113.16 1413.21 1179.63 1352.15L1139.04 1307.96L1098.45 1263.77C1054.07 1304.54 996.031 1327.2 935.774 1327.29L935.866 1387.29ZM1139.04 1307.96L1124.71 1366.23L1124.77 1366.24L1139.1 1307.98L1153.42 1249.71L1153.36 1249.7L1139.04 1307.96ZM935.866 859.989L935.866 919.989C1027.69 919.989 1102.13 994.428 1102.13 1086.25L1162.13 1086.25L1222.13 1086.25C1222.13 928.154 1093.96 799.989 935.866 799.989L935.866 859.989ZM1162.13 1086.25L1102.13 1086.26C1102.13 1178.08 1027.69 1252.52 935.866 1252.52L935.866 1312.52L935.867 1372.52C1093.97 1372.52 1222.13 1244.35 1222.13 1086.25L1162.13 1086.25ZM935.866 1312.52V1252.52C844.041 1252.52 769.6 1178.08 769.602 1086.25L709.602 1086.25L649.602 1086.25C649.6 1244.35 777.765 1372.52 935.866 1372.52V1312.52ZM709.602 1086.25H769.602C769.602 994.43 844.04 919.99 935.866 919.989L935.866 859.989L935.866 799.989C777.766 799.99 649.602 928.156 649.602 1086.25H709.602Z" fill="#1C1A19" mask="url(#path-13-inside-3_56_56)"/>
<circle cx="936" cy="1086" r="145" stroke="#50C6EA" stroke-width="40"/>
</g>
<circle cx="1494" cy="998" r="145" stroke="#50C6EA" stroke-width="40"/>
<circle cx="384" cy="998" r="145" stroke="#50C6EA" stroke-width="40"/>
<path d="M804.027 127.209C797.611 130.331 789.546 128.184 785.928 122.266L785.759 121.98L785.758 121.979L753.074 65.1084L752.911 64.8164C749.58 58.654 752.253 51.1489 758.729 47.9971L758.729 47.9961L762.948 45.9395C769.467 42.7554 777.688 45.0212 781.219 51.1553V51.1562L813.903 108.028V108.027C817.481 114.244 814.826 121.938 808.249 125.15L804.028 127.208L804.027 127.209Z" fill="#1C1A19" stroke="#1C1A19" stroke-width="3"/>
<path d="M721.367 220.527C717.688 227.15 709.417 229.503 702.983 225.633L643.178 189.698L643.177 189.697C636.783 185.85 634.617 177.325 638.28 170.731L638.281 170.732L640.64 166.479C644.309 159.838 652.582 157.501 659.014 161.37L718.818 197.305L718.819 197.306C725.213 201.153 727.378 209.675 723.729 216.269V216.27L721.368 220.526L721.367 220.527Z" fill="#1C1A19" stroke="#1C1A19" stroke-width="3"/>
<path d="M616.045 338.417H616.044C608.585 338.403 602.488 332.296 602.5 324.835V320.044C602.513 312.585 608.623 306.488 616.084 306.501V306.5L685.955 306.583H685.956C693.415 306.597 699.513 312.706 699.5 320.168V324.944C699.487 332.414 693.379 338.511 685.917 338.499L685.916 338.5L616.045 338.417Z" fill="#1C1A19" stroke="#1C1A19" stroke-width="3"/>
<path d="M338.996 689.111C324.766 552.504 352.693 457.41 468.658 372.931" stroke="#1C1A19" stroke-width="50" stroke-linecap="round"/>
<path d="M506.874 340.766L454.018 483.966L356.431 366.591L506.874 340.766Z" fill="#1C1A19"/>
<path d="M1532.53 689.111C1546.76 552.504 1518.84 457.41 1402.87 372.931" stroke="#1C1A19" stroke-width="50" stroke-linecap="round"/>
<path d="M1364.66 340.766L1417.51 483.966L1515.1 366.591L1364.66 340.766Z" fill="#1C1A19"/>
<defs>
<clipPath id="clip0_56_56">
<rect width="767.77" height="800" fill="white" transform="translate(552 860)"/>
</clipPath>
</defs>
</svg>
