<svg width="1878" height="1640" viewBox="0 0 1878 1640" fill="none" xmlns="http://www.w3.org/2000/svg">
<mask id="path-1-inside-1_47_523" fill="white">
<path d="M587.088 1199.99C699.399 1274.47 767.684 1405.22 767.769 1545.96C767.692 1547.98 767.601 1550 767.496 1552.02H0.268555C0.165086 1550 0.0754737 1547.98 0 1545.96C0.192983 1405.22 68.5771 1274.52 180.943 1200.13C236.326 1250.93 308.707 1279.17 383.857 1279.31C459.116 1279.19 531.605 1250.88 587.028 1199.97L587.088 1199.99ZM383.857 752C508.818 752 610.121 853.302 610.121 978.265C610.123 1103.23 508.82 1204.53 383.857 1204.53C258.894 1204.53 157.591 1103.23 157.593 978.265C157.593 853.304 258.894 752.001 383.857 752Z"/>
</mask>
<path d="M587.088 1199.99C699.399 1274.47 767.684 1405.22 767.769 1545.96C767.692 1547.98 767.601 1550 767.496 1552.02H0.268555C0.165086 1550 0.0754737 1547.98 0 1545.96C0.192983 1405.22 68.5771 1274.52 180.943 1200.13C236.326 1250.93 308.707 1279.17 383.857 1279.31C459.116 1279.19 531.605 1250.88 587.028 1199.97L587.088 1199.99ZM383.857 752C508.818 752 610.121 853.302 610.121 978.265C610.123 1103.23 508.82 1204.53 383.857 1204.53C258.894 1204.53 157.591 1103.23 157.593 978.265C157.593 853.304 258.894 752.001 383.857 752Z" fill="#EBF8FC"/>
<path d="M587.088 1199.99L609.196 1166.65L603.397 1162.81L596.639 1161.14L587.088 1199.99ZM767.769 1545.96L807.74 1547.48L807.769 1546.71L807.769 1545.94L767.769 1545.96ZM767.496 1552.02V1592.02H805.467L807.442 1554.1L767.496 1552.02ZM0.268555 1552.02L-39.679 1554.07L-37.734 1592.02H0.268555V1552.02ZM0 1545.96L-40 1545.9L-40.001 1546.68L-39.9721 1547.45L0 1545.96ZM180.943 1200.13L207.981 1170.65L184.936 1149.52L158.862 1166.78L180.943 1200.13ZM383.857 1279.31L383.785 1319.31L383.852 1319.31L383.919 1319.31L383.857 1279.31ZM587.028 1199.97L596.58 1161.13L575.759 1156.01L559.968 1170.51L587.028 1199.97ZM383.857 752L383.857 712H383.857L383.857 752ZM610.121 978.265L570.121 978.265V978.265L610.121 978.265ZM383.857 1204.53V1244.53H383.858L383.857 1204.53ZM157.593 978.265L197.593 978.265V978.265H157.593ZM587.088 1199.99L564.98 1233.32C665.544 1300.02 727.692 1417.94 727.769 1545.98L767.769 1545.96L807.769 1545.94C807.677 1392.51 733.253 1248.93 609.196 1166.65L587.088 1199.99ZM767.769 1545.96L727.797 1544.44C727.728 1546.28 727.645 1548.11 727.55 1549.94L767.496 1552.02L807.442 1554.1C807.557 1551.89 807.656 1549.68 807.74 1547.48L767.769 1545.96ZM767.496 1552.02V1512.02H0.268555V1552.02V1592.02H767.496V1552.02ZM0.268555 1552.02L40.2161 1549.97C40.122 1548.14 40.0406 1546.3 39.9721 1544.47L0 1545.96L-39.9721 1547.45C-39.8897 1549.66 -39.7919 1551.86 -39.679 1554.07L0.268555 1552.02ZM0 1545.96L40 1546.01C40.1755 1417.96 102.412 1300.09 203.024 1233.48L180.943 1200.13L158.862 1166.78C34.7417 1248.95 -39.7896 1392.48 -40 1545.9L0 1545.96ZM180.943 1200.13L153.906 1229.61C216.649 1287.16 298.648 1319.15 383.785 1319.31L383.857 1279.31L383.93 1239.31C318.766 1239.19 256.004 1214.7 207.981 1170.65L180.943 1200.13ZM383.857 1279.31L383.919 1319.31C469.179 1319.17 551.3 1287.11 614.088 1229.43L587.028 1199.97L559.968 1170.51C511.91 1214.66 449.053 1239.21 383.796 1239.31L383.857 1279.31ZM587.028 1199.97L577.477 1238.81L577.536 1238.83L587.088 1199.99L596.639 1161.14L596.58 1161.13L587.028 1199.97ZM383.857 752L383.857 792C486.727 792 570.121 875.393 570.121 978.265L610.121 978.265L650.121 978.264C650.12 831.21 530.91 712 383.857 712L383.857 752ZM610.121 978.265L570.121 978.265C570.123 1081.14 486.729 1164.53 383.857 1164.53L383.857 1204.53L383.858 1244.53C530.912 1244.53 650.124 1125.32 650.121 978.264L610.121 978.265ZM383.857 1204.53V1164.53C280.986 1164.53 197.592 1081.14 197.593 978.265L157.593 978.265L117.593 978.264C117.591 1125.32 236.802 1244.53 383.857 1244.53V1204.53ZM157.593 978.265H197.593C197.593 875.395 280.986 792 383.858 792L383.857 752L383.857 712C236.803 712.001 117.593 831.213 117.593 978.265H157.593Z" fill="#1C1A19" mask="url(#path-1-inside-1_47_523)"/>
<mask id="path-3-inside-2_47_523" fill="white">
<path d="M1697.09 1199.99C1809.4 1274.47 1877.68 1405.22 1877.77 1545.96C1877.69 1547.98 1877.6 1550 1877.5 1552.02H1110.27C1110.17 1550 1110.08 1547.98 1110 1545.96C1110.19 1405.22 1178.58 1274.52 1290.94 1200.13C1346.33 1250.93 1418.71 1279.17 1493.86 1279.31C1569.12 1279.19 1641.6 1250.88 1697.03 1199.97L1697.09 1199.99ZM1493.86 752C1618.82 752 1720.12 853.302 1720.12 978.265C1720.12 1103.23 1618.82 1204.53 1493.86 1204.53C1368.89 1204.53 1267.59 1103.23 1267.59 978.265C1267.59 853.304 1368.89 752.001 1493.86 752Z"/>
</mask>
<path d="M1697.09 1199.99C1809.4 1274.47 1877.68 1405.22 1877.77 1545.96C1877.69 1547.98 1877.6 1550 1877.5 1552.02H1110.27C1110.17 1550 1110.08 1547.98 1110 1545.96C1110.19 1405.22 1178.58 1274.52 1290.94 1200.13C1346.33 1250.93 1418.71 1279.17 1493.86 1279.31C1569.12 1279.19 1641.6 1250.88 1697.03 1199.97L1697.09 1199.99ZM1493.86 752C1618.82 752 1720.12 853.302 1720.12 978.265C1720.12 1103.23 1618.82 1204.53 1493.86 1204.53C1368.89 1204.53 1267.59 1103.23 1267.59 978.265C1267.59 853.304 1368.89 752.001 1493.86 752Z" fill="#EBF8FC"/>
<path d="M1697.09 1199.99L1719.2 1166.65L1713.4 1162.81L1706.64 1161.14L1697.09 1199.99ZM1877.77 1545.96L1917.74 1547.48L1917.77 1546.71L1917.77 1545.94L1877.77 1545.96ZM1877.5 1552.02V1592.02H1915.47L1917.44 1554.1L1877.5 1552.02ZM1110.27 1552.02L1070.32 1554.07L1072.27 1592.02H1110.27V1552.02ZM1110 1545.96L1070 1545.9L1070 1546.68L1070.03 1547.45L1110 1545.96ZM1290.94 1200.13L1317.98 1170.65L1294.94 1149.52L1268.86 1166.78L1290.94 1200.13ZM1493.86 1279.31L1493.78 1319.31L1493.85 1319.31L1493.92 1319.31L1493.86 1279.31ZM1697.03 1199.97L1706.58 1161.13L1685.76 1156.01L1669.97 1170.51L1697.03 1199.97ZM1493.86 752L1493.86 712H1493.86L1493.86 752ZM1720.12 978.265L1680.12 978.265V978.265L1720.12 978.265ZM1493.86 1204.53V1244.53H1493.86L1493.86 1204.53ZM1267.59 978.265L1307.59 978.265V978.265H1267.59ZM1697.09 1199.99L1674.98 1233.32C1775.54 1300.02 1837.69 1417.94 1837.77 1545.98L1877.77 1545.96L1917.77 1545.94C1917.68 1392.51 1843.25 1248.93 1719.2 1166.65L1697.09 1199.99ZM1877.77 1545.96L1837.8 1544.44C1837.73 1546.28 1837.65 1548.11 1837.55 1549.94L1877.5 1552.02L1917.44 1554.1C1917.56 1551.89 1917.66 1549.68 1917.74 1547.48L1877.77 1545.96ZM1877.5 1552.02V1512.02H1110.27V1552.02V1592.02H1877.5V1552.02ZM1110.27 1552.02L1150.22 1549.97C1150.12 1548.14 1150.04 1546.3 1149.97 1544.47L1110 1545.96L1070.03 1547.45C1070.11 1549.66 1070.21 1551.86 1070.32 1554.07L1110.27 1552.02ZM1110 1545.96L1150 1546.01C1150.18 1417.96 1212.41 1300.09 1313.02 1233.48L1290.94 1200.13L1268.86 1166.78C1144.74 1248.95 1070.21 1392.48 1070 1545.9L1110 1545.96ZM1290.94 1200.13L1263.91 1229.61C1326.65 1287.16 1408.65 1319.15 1493.78 1319.31L1493.86 1279.31L1493.93 1239.31C1428.77 1239.19 1366 1214.7 1317.98 1170.65L1290.94 1200.13ZM1493.86 1279.31L1493.92 1319.31C1579.18 1319.17 1661.3 1287.11 1724.09 1229.43L1697.03 1199.97L1669.97 1170.51C1621.91 1214.66 1559.05 1239.21 1493.8 1239.31L1493.86 1279.31ZM1697.03 1199.97L1687.48 1238.81L1687.54 1238.83L1697.09 1199.99L1706.64 1161.14L1706.58 1161.13L1697.03 1199.97ZM1493.86 752L1493.86 792C1596.73 792 1680.12 875.393 1680.12 978.265L1720.12 978.265L1760.12 978.264C1760.12 831.21 1640.91 712 1493.86 712L1493.86 752ZM1720.12 978.265L1680.12 978.265C1680.12 1081.14 1596.73 1164.53 1493.86 1164.53L1493.86 1204.53L1493.86 1244.53C1640.91 1244.53 1760.12 1125.32 1760.12 978.264L1720.12 978.265ZM1493.86 1204.53V1164.53C1390.99 1164.53 1307.59 1081.14 1307.59 978.265L1267.59 978.265L1227.59 978.264C1227.59 1125.32 1346.8 1244.53 1493.86 1244.53V1204.53ZM1267.59 978.265H1307.59C1307.59 875.395 1390.99 792 1493.86 792L1493.86 752L1493.86 712C1346.8 712.001 1227.59 831.213 1227.59 978.265H1267.59Z" fill="#1C1A19" mask="url(#path-3-inside-2_47_523)"/>
<path d="M861.044 508.441H1002.91C1002.94 507.777 1002.97 507.18 1003 506.697C1005.89 457.561 1026.58 432.729 1044.83 410.81C1052.65 401.413 1060.04 392.544 1065.21 382.498C1065.52 381.849 1065.86 381.222 1066.27 380.633C1080.75 356.45 1088.42 328.712 1088.42 300.4C1088.42 260.744 1073.53 222.906 1046.52 193.87C1017.01 162.184 975.258 144.016 931.986 144.016C893.485 144.016 856.493 158.161 827.796 183.846C823.879 187.258 820.324 190.753 816.807 194.61C790.208 223.571 775.595 261.129 775.595 300.4C775.595 313.767 777.271 326.968 780.6 339.664C784.29 354.088 790.012 367.825 797.612 380.535C797.997 381.041 798.337 381.592 798.624 382.181C803.794 392.385 811.266 401.367 819.177 410.863C837.344 432.691 857.935 457.418 860.916 506.411C860.954 507.075 860.999 507.754 861.044 508.441Z" fill="#50C6EA"/>
<path d="M931.981 135.471C890.921 135.471 851.461 150.566 820.854 177.965C816.673 181.596 812.884 185.324 809.133 189.438C780.76 220.331 765.174 260.387 765.174 302.278C765.174 316.536 766.963 330.612 770.51 344.161C774.45 359.543 780.549 374.201 788.655 387.757C789.063 388.293 789.433 388.882 789.742 389.508C795.252 400.392 803.223 409.97 811.661 420.1C831.036 443.385 853.001 469.757 856.178 522.018C856.223 522.72 856.269 536.789 856.314 537.521H1007.63C1007.66 536.819 1007.7 522.841 1007.74 522.32C1010.81 469.908 1032.88 443.422 1052.35 420.047C1060.69 410.023 1068.57 400.558 1074.09 389.84C1074.41 389.153 1074.79 388.482 1075.22 387.855C1090.67 362.064 1098.84 332.469 1098.84 302.278C1098.84 259.98 1082.97 219.622 1054.14 188.653C1022.67 154.854 978.136 135.471 931.981 135.471ZM931.981 166.741C969.494 166.741 1005.68 182.501 1031.25 209.96C1054.67 235.125 1067.57 267.913 1067.57 302.278C1067.57 326.582 1061.06 350.403 1048.73 371.212C1047.76 372.707 1046.88 374.277 1046.1 375.892C1042.12 383.462 1035.72 391.146 1028.31 400.045C1009.6 422.515 984.522 452.623 977.819 506.251H886.113C879.395 452.601 854.367 422.53 835.693 400.09C828.146 391.025 821.624 383.191 817.692 375.484C816.877 373.854 815.963 372.277 814.944 370.774C808.657 360.057 803.902 348.493 800.762 336.228C797.901 325.299 796.445 313.879 796.445 302.278C796.445 268.237 809.133 235.676 832.252 210.496C835.248 207.213 838.146 204.367 841.384 201.552L841.55 201.409L841.709 201.265C866.579 179.007 898.635 166.741 931.981 166.741Z" fill="#50C6EA"/>
<path d="M1008.06 602.594H851.665V525.9H1008.06V602.594Z" fill="white"/>
<path d="M862.298 509.965H1004.16C1004.19 509.301 1004.23 508.704 1004.26 508.221C1007.14 459.085 1027.84 434.252 1046.09 412.333C1053.91 402.936 1061.3 394.068 1066.47 384.022C1066.77 383.372 1067.12 382.746 1067.52 382.157C1082.01 357.974 1089.68 330.236 1089.68 301.924C1089.68 262.267 1074.78 224.43 1047.77 195.394C1018.26 163.708 976.512 145.54 933.232 145.54C894.738 145.54 857.746 159.685 829.049 185.37C825.132 188.782 821.577 192.276 818.06 196.133C791.461 225.094 776.849 262.652 776.849 301.924C776.849 315.291 778.524 328.492 781.853 341.188C785.544 355.611 791.265 369.349 798.866 382.059C799.251 382.565 799.59 383.116 799.877 383.705C805.047 393.909 812.52 402.891 820.43 412.386C838.597 434.215 859.188 458.941 862.169 507.934C862.207 508.599 862.252 509.278 862.298 509.965ZM1015.1 532.54H851.316C845.081 532.54 840.032 527.498 840.032 521.249L839.979 517.648C839.949 516.554 839.926 515.475 839.866 514.441C839.843 514.184 839.843 513.942 839.843 513.686C839.843 512.237 839.745 510.848 839.632 509.436C837.095 467.712 819.796 446.925 803.077 426.833C794.911 417.028 786.48 406.899 780.207 394.815C780.102 394.664 780.004 394.498 779.906 394.339C770.984 379.568 764.282 363.597 759.994 346.848C756.198 332.342 754.273 317.201 754.273 301.924C754.273 256.976 771.007 213.991 801.394 180.902C805.478 176.411 809.644 172.335 814.097 168.455C846.832 139.147 889.183 122.957 933.232 122.957C982.754 122.957 1030.52 143.744 1064.3 180.004C1095.22 213.244 1112.25 256.539 1112.25 301.924C1112.25 334.289 1103.5 366.005 1086.94 393.69C1086.75 394.09 1086.54 394.468 1086.29 394.845C1080.01 406.899 1071.58 416.99 1063.43 426.78C1046.62 446.963 1029.25 467.825 1026.79 509.701C1026.55 513.022 1026.39 521.445 1026.39 521.483C1026.26 527.627 1021.25 532.54 1015.1 532.54Z" fill="#1C1A19"/>
<path d="M1015.11 532.543H1003.82V586.133C1003.82 592.36 998.742 597.417 992.53 597.417H873.893C867.666 597.417 862.609 592.36 862.609 586.133V532.543H851.317C845.075 532.543 840.033 527.494 840.033 521.252V586.133C840.033 604.806 855.22 620 873.893 620H992.53C1011.2 620 1026.39 604.806 1026.39 586.133V521.486C1026.26 527.622 1021.25 532.543 1015.11 532.543Z" fill="#1C1A19"/>
<path d="M944.436 90.5C951.98 90.5 958.5 85.0297 958.5 77.958V14.042C958.5 6.97031 951.98 1.5 944.436 1.5H939.464C931.907 1.50019 925.401 6.97131 925.401 14.042V77.958C925.401 85.0287 931.907 90.4998 939.464 90.5H944.436Z" fill="#1C1A19" stroke="#1C1A19" stroke-width="3"/>
<path d="M1057.97 113.209C1064.39 116.331 1072.45 114.184 1076.07 108.266L1076.24 107.98L1076.24 107.979L1108.93 51.1084L1109.09 50.8164C1112.42 44.654 1109.75 37.1489 1103.27 33.9971L1103.27 33.9961L1099.05 31.9395C1092.53 28.7554 1084.31 31.0212 1080.78 37.1553V37.1562L1048.1 94.0283V94.0273C1044.52 100.244 1047.17 107.938 1053.75 111.15L1057.97 113.208L1057.97 113.209Z" fill="#1C1A19" stroke="#1C1A19" stroke-width="3"/>
<path d="M1133.63 203.527C1137.31 210.15 1145.58 212.503 1152.02 208.633L1211.82 172.698L1211.82 172.697C1218.22 168.85 1220.38 160.325 1216.72 153.731L1216.72 153.732L1214.36 149.479C1210.69 142.838 1202.42 140.501 1195.99 144.37L1136.18 180.305L1136.18 180.306C1129.79 184.153 1127.62 192.675 1131.27 199.269V199.27L1133.63 203.526L1133.63 203.527Z" fill="#1C1A19" stroke="#1C1A19" stroke-width="3"/>
<path d="M1239.96 318.417H1239.96C1247.41 318.403 1253.51 312.296 1253.5 304.835V300.044C1253.49 292.585 1247.38 286.488 1239.92 286.501V286.5L1170.04 286.583H1170.04C1162.58 286.597 1156.49 292.706 1156.5 300.168V304.944C1156.51 312.414 1162.62 318.511 1170.08 318.499L1170.08 318.5L1239.96 318.417Z" fill="#1C1A19" stroke="#1C1A19" stroke-width="3"/>
<g clip-path="url(#clip0_47_523)">
<mask id="path-14-inside-3_47_523" fill="white">
<path d="M1139.1 1287.98C1251.41 1362.46 1319.69 1493.21 1319.78 1633.95C1319.7 1635.97 1319.61 1637.99 1319.5 1640.01H552.277C552.174 1637.99 552.084 1635.97 552.009 1633.95C552.202 1493.21 620.586 1362.51 732.952 1288.12C788.335 1338.92 860.716 1367.16 935.866 1367.29C1011.13 1367.18 1083.61 1338.87 1139.04 1287.96L1139.1 1287.98ZM935.866 839.989C1060.83 839.989 1162.13 941.291 1162.13 1066.25C1162.13 1191.22 1060.83 1292.52 935.866 1292.52C810.903 1292.52 709.6 1191.22 709.602 1066.25C709.602 941.293 810.903 839.99 935.866 839.989Z"/>
</mask>
<path d="M1139.1 1287.98C1251.41 1362.46 1319.69 1493.21 1319.78 1633.95C1319.7 1635.97 1319.61 1637.99 1319.5 1640.01H552.277C552.174 1637.99 552.084 1635.97 552.009 1633.95C552.202 1493.21 620.586 1362.51 732.952 1288.12C788.335 1338.92 860.716 1367.16 935.866 1367.29C1011.13 1367.18 1083.61 1338.87 1139.04 1287.96L1139.1 1287.98ZM935.866 839.989C1060.83 839.989 1162.13 941.291 1162.13 1066.25C1162.13 1191.22 1060.83 1292.52 935.866 1292.52C810.903 1292.52 709.6 1191.22 709.602 1066.25C709.602 941.293 810.903 839.99 935.866 839.989Z" fill="#EBF8FC"/>
<path d="M1139.1 1287.98L1161.2 1254.64L1155.41 1250.79L1148.65 1249.13L1139.1 1287.98ZM1319.78 1633.95L1359.75 1635.47L1359.78 1634.7L1359.78 1633.92L1319.78 1633.95ZM1319.5 1640.01V1680.01H1357.48L1359.45 1642.09L1319.5 1640.01ZM552.277 1640.01L512.33 1642.06L514.275 1680.01H552.277V1640.01ZM552.009 1633.95L512.009 1633.89L512.008 1634.67L512.037 1635.44L552.009 1633.95ZM732.952 1288.12L759.99 1258.64L736.945 1237.51L710.871 1254.77L732.952 1288.12ZM935.866 1367.29L935.794 1407.29L935.861 1407.29L935.928 1407.29L935.866 1367.29ZM1139.04 1287.96L1148.59 1249.12L1127.77 1244L1111.98 1258.5L1139.04 1287.96ZM935.866 839.989L935.866 799.989H935.866L935.866 839.989ZM1162.13 1066.25L1122.13 1066.25V1066.25L1162.13 1066.25ZM935.866 1292.52V1332.52H935.866L935.866 1292.52ZM709.602 1066.25L749.602 1066.25V1066.25H709.602ZM1139.1 1287.98L1116.99 1321.31C1217.55 1388.01 1279.7 1505.93 1279.78 1633.97L1319.78 1633.95L1359.78 1633.92C1359.69 1480.5 1285.26 1336.92 1161.2 1254.64L1139.1 1287.98ZM1319.78 1633.95L1279.81 1632.43C1279.74 1634.27 1279.65 1636.1 1279.56 1637.93L1319.5 1640.01L1359.45 1642.09C1359.57 1639.88 1359.66 1637.67 1359.75 1635.47L1319.78 1633.95ZM1319.5 1640.01V1600.01H552.277V1640.01V1680.01H1319.5V1640.01ZM552.277 1640.01L592.225 1637.96C592.131 1636.12 592.049 1634.29 591.981 1632.46L552.009 1633.95L512.037 1635.44C512.119 1637.65 512.217 1639.85 512.33 1642.06L552.277 1640.01ZM552.009 1633.95L592.009 1634C592.184 1505.95 654.421 1388.08 755.033 1321.47L732.952 1288.12L710.871 1254.77C586.751 1336.94 512.219 1480.47 512.009 1633.89L552.009 1633.95ZM732.952 1288.12L705.915 1317.6C768.657 1375.15 850.657 1407.14 935.794 1407.29L935.866 1367.29L935.939 1327.29C870.775 1327.18 808.012 1302.69 759.99 1258.64L732.952 1288.12ZM935.866 1367.29L935.928 1407.29C1021.19 1407.16 1103.31 1375.1 1166.1 1317.42L1139.04 1287.96L1111.98 1258.5C1063.92 1302.65 1001.06 1327.19 935.805 1327.29L935.866 1367.29ZM1139.04 1287.96L1129.49 1326.8L1129.55 1326.82L1139.1 1287.98L1148.65 1249.13L1148.59 1249.12L1139.04 1287.96ZM935.866 839.989L935.866 879.989C1038.74 879.989 1122.13 963.382 1122.13 1066.25L1162.13 1066.25L1202.13 1066.25C1202.13 919.199 1082.92 799.989 935.866 799.989L935.866 839.989ZM1162.13 1066.25L1122.13 1066.25C1122.13 1169.13 1038.74 1252.52 935.866 1252.52L935.866 1292.52L935.866 1332.52C1082.92 1332.52 1202.13 1213.31 1202.13 1066.25L1162.13 1066.25ZM935.866 1292.52V1252.52C832.995 1252.52 749.6 1169.13 749.602 1066.25L709.602 1066.25L669.602 1066.25C669.6 1213.31 788.811 1332.52 935.866 1332.52V1292.52ZM709.602 1066.25H749.602C749.602 963.384 832.995 879.99 935.866 879.989L935.866 839.989L935.866 799.989C788.811 799.99 669.602 919.202 669.602 1066.25H709.602Z" fill="#1C1A19" mask="url(#path-14-inside-3_47_523)"/>
<circle cx="936" cy="1065" r="168.5" stroke="#50C6EA" stroke-width="35"/>
</g>
<circle cx="384" cy="977" r="168.5" stroke="#50C6EA" stroke-width="35"/>
<circle cx="1494" cy="977" r="168.5" stroke="#50C6EA" stroke-width="35"/>
<path d="M804.027 113.209C797.611 116.331 789.546 114.184 785.928 108.266L785.759 107.98L785.758 107.979L753.074 51.1084L752.911 50.8164C749.58 44.654 752.253 37.1489 758.729 33.9971L758.729 33.9961L762.948 31.9395C769.467 28.7554 777.688 31.0212 781.219 37.1553V37.1562L813.903 94.0283V94.0273C817.481 100.244 814.826 107.938 808.249 111.15L804.028 113.208L804.027 113.209Z" fill="#1C1A19" stroke="#1C1A19" stroke-width="3"/>
<path d="M728.367 203.527C724.688 210.15 716.417 212.503 709.983 208.633L650.178 172.698L650.177 172.697C643.783 168.85 641.617 160.325 645.28 153.731L645.281 153.732L647.64 149.479C651.309 142.838 659.582 140.501 666.014 144.37L725.818 180.305L725.819 180.306C732.213 184.153 734.378 192.675 730.729 199.269V199.27L728.368 203.526L728.367 203.527Z" fill="#1C1A19" stroke="#1C1A19" stroke-width="3"/>
<path d="M622.045 318.417H622.044C614.585 318.403 608.488 312.296 608.5 304.835V300.044C608.513 292.585 614.623 286.488 622.084 286.501V286.5L691.955 286.583H691.956C699.415 286.597 705.513 292.706 705.5 300.168V304.944C705.487 312.414 699.379 318.511 691.917 318.499L691.916 318.5L622.045 318.417Z" fill="#1C1A19" stroke="#1C1A19" stroke-width="3"/>
<path d="M360.996 669.111C346.766 532.504 374.693 437.41 490.658 352.932" stroke="#1C1A19" stroke-width="45" stroke-linecap="round"/>
<path d="M526.874 321.766L474.018 464.966L376.431 347.591L526.874 321.766Z" fill="#1C1A19"/>
<path d="M1504.53 669.111C1518.76 532.504 1490.84 437.41 1374.87 352.932" stroke="#1C1A19" stroke-width="45" stroke-linecap="round"/>
<path d="M1338.66 321.766L1391.51 464.966L1489.1 347.591L1338.66 321.766Z" fill="#1C1A19"/>
<defs>
<clipPath id="clip0_47_523">
<rect width="767.77" height="800" fill="white" transform="translate(552 840)"/>
</clipPath>
</defs>
</svg>
